# xmcd CD database file
#
# Track frame offsets:
#	150
#	4363
#	18010
#	33584
#	47112
#	49971
#	62070
#	65998
#	68401
#	89430
#	102556
#	116927
#	121250
#
# Disc length: 1789 seconds
#
# Revision: 0
# Processed by: cddbd v1.5.1PL0 Copyright (c) Steve Scherf et al.
# Submitted via: CdAid (MTCDDB.DLL V2003.01.23)
#
DISCID=bb06fb0d
DTITLE=Jay Alan Thompson and OFS - Thank You For The Love
DYEAR=2005
DGENRE=Gospel
TTITLE0=Life Everlasting
TTITLE1=Carry Me To Love
TTITLE2=The Best Thing I Ever Did
TTITLE3=My Prayer
TTITLE4=TYFTL:  Eve (In The Beginning)
TTITLE5=TYFTL:  Thank You For The Love
TTITLE6=TYFTL:  Take Care
TTITLE7=TYFTL:  No More Searching
TTITLE8=So In Love
TTITLE9=Deeper
TTITLE10=Loving You, Kissing You
TTITLE11=Life Conclusion
TTITLE12=Everlasting Love
EXTD=YEAR: 2005 ID3G:  17 
EXTT0=
EXTT1=
EXTT2=
EXTT3=
EXTT4=
EXTT5=
EXTT6=
EXTT7=
EXTT8=
EXTT9=
EXTT10=
EXTT11=
EXTT12=
PLAYORDER=
